<svg width="18" height="19" viewBox="0 0 18 19" fill="none" xmlns="http://www.w3.org/2000/svg">
<path d="M12.75 2.32812H5.25C3.17893 2.32812 1.5 4.00706 1.5 6.07813V13.5781C1.5 15.6492 3.17893 17.3281 5.25 17.3281H12.75C14.8211 17.3281 16.5 15.6492 16.5 13.5781V6.07813C16.5 4.00706 14.8211 2.32812 12.75 2.32812Z" stroke="white" stroke-linecap="round" stroke-linejoin="round"/>
<path d="M12 9.35683C12.0926 9.98101 11.9859 10.6185 11.6953 11.1786C11.4047 11.7387 10.9449 12.1929 10.3812 12.4766C9.81757 12.7603 9.17883 12.859 8.55583 12.7588C7.93284 12.6585 7.35731 12.3644 6.91112 11.9182C6.46493 11.472 6.17079 10.8965 6.07054 10.2735C5.9703 9.65049 6.06904 9.01175 6.35274 8.44811C6.63643 7.88447 7.09063 7.42463 7.65073 7.13401C8.21083 6.84338 8.84831 6.73677 9.47249 6.82933C10.1092 6.92374 10.6986 7.22043 11.1538 7.67556C11.6089 8.13069 11.9056 8.72014 12 9.35683Z" stroke="white" stroke-linecap="round" stroke-linejoin="round"/>
<path d="M13.125 5.70312H13.135" stroke="white" stroke-linecap="round" stroke-linejoin="round"/>
</svg>
