<svg width="18" height="19" viewBox="0 0 18 19" fill="none" xmlns="http://www.w3.org/2000/svg">
<path d="M12 6.82812C13.1935 6.82812 14.3381 7.30223 15.182 8.14614C16.0259 8.99006 16.5 10.1347 16.5 11.3281V16.5781H13.5V11.3281C13.5 10.9303 13.342 10.5488 13.0607 10.2675C12.7794 9.98616 12.3978 9.82812 12 9.82812C11.6022 9.82812 11.2206 9.98616 10.9393 10.2675C10.658 10.5488 10.5 10.9303 10.5 11.3281V16.5781H7.5V11.3281C7.5 10.1347 7.97411 8.99006 8.81802 8.14614C9.66193 7.30223 10.8065 6.82813 12 6.82812V6.82812Z" stroke="white" stroke-linecap="round" stroke-linejoin="round"/>
<path d="M4.5 7.57812H1.5V16.5781H4.5V7.57812Z" stroke="white" stroke-linecap="round" stroke-linejoin="round"/>
<path d="M3 5.32813C3.82843 5.32813 4.5 4.65655 4.5 3.82813C4.5 2.9997 3.82843 2.32812 3 2.32812C2.17157 2.32812 1.5 2.9997 1.5 3.82813C1.5 4.65655 2.17157 5.32813 3 5.32813Z" stroke="white" stroke-linecap="round" stroke-linejoin="round"/>
</svg>
