<svg width="18" height="19" viewBox="0 0 18 19" fill="none" xmlns="http://www.w3.org/2000/svg">
<path d="M17.25 3.07785C16.5318 3.58446 15.7366 3.97194 14.895 4.22535C14.4433 3.70599 13.843 3.33787 13.1753 3.1708C12.5075 3.00372 11.8046 3.04575 11.1616 3.29119C10.5185 3.53664 9.96633 3.97366 9.57973 4.54314C9.19314 5.11263 8.99077 5.78711 9 6.47535V7.22535C7.68197 7.25953 6.37595 6.96721 5.19826 6.37444C4.02056 5.78166 3.00774 4.90683 2.25 3.82785C2.25 3.82785 -0.75 10.5779 6 13.5779C4.45539 14.6263 2.61537 15.1521 0.75 15.0779C7.5 18.8279 15.75 15.0779 15.75 6.45285C15.7493 6.24394 15.7292 6.03555 15.69 5.83035C16.4554 5.07547 16.9956 4.12239 17.25 3.07785V3.07785Z" stroke="white" stroke-linecap="round" stroke-linejoin="round"/>
</svg>
