<svg width="24" height="17" viewBox="0 0 24 17" fill="none" xmlns="http://www.w3.org/2000/svg">
<path d="M1.33333 16.7578C0.955556 16.7578 0.639111 16.6298 0.384 16.3738C0.128 16.1187 0 15.8023 0 15.4245C0 15.0467 0.128 14.7303 0.384 14.4751C0.639111 14.2191 0.955556 14.0911 1.33333 14.0911H22.6667C23.0444 14.0911 23.3609 14.2191 23.616 14.4751C23.872 14.7303 24 15.0467 24 15.4245C24 15.8023 23.872 16.1187 23.616 16.3738C23.3609 16.6298 23.0444 16.7578 22.6667 16.7578H1.33333ZM1.33333 10.0911C0.955556 10.0911 0.639111 9.96315 0.384 9.70715C0.128 9.45203 0 9.13559 0 8.75781C0 8.38003 0.128 8.06315 0.384 7.80715C0.639111 7.55203 0.955556 7.42448 1.33333 7.42448H22.6667C23.0444 7.42448 23.3609 7.55203 23.616 7.80715C23.872 8.06315 24 8.38003 24 8.75781C24 9.13559 23.872 9.45203 23.616 9.70715C23.3609 9.96315 23.0444 10.0911 22.6667 10.0911H1.33333ZM1.33333 3.42448C0.955556 3.42448 0.639111 3.29692 0.384 3.04181C0.128 2.78581 0 2.46892 0 2.09115C0 1.71337 0.128 1.39648 0.384 1.14048C0.639111 0.885368 0.955556 0.757812 1.33333 0.757812H22.6667C23.0444 0.757812 23.3609 0.885368 23.616 1.14048C23.872 1.39648 24 1.71337 24 2.09115C24 2.46892 23.872 2.78581 23.616 3.04181C23.3609 3.29692 23.0444 3.42448 22.6667 3.42448H1.33333Z" fill="#440F7C"/>
</svg>
